<svg width="1328.919921875px" height="366.5199951171875px" xmlns="http://www.w3.org/2000/svg" viewBox="-414.4599609375 -108.25999755859374 1328.919921875 366.5199951171875" style="background: none;" preserveAspectRatio="xMidYMid"><defs><filter id="editing-lego" x="-100%" y="-100%" width="300%" height="300%"><feFlood flood-color="#000" result="f1"></feFlood><feFlood flood-color="#ffff00" result="f2"></feFlood><feMorphology operator="dilate" radius="3" in="SourceAlpha"></feMorphology><feConvolveMatrix order="5,5" divisor="1" result="cm1" kernelMatrix="0 1 1 1 0  1 0 0 0 1  1 0 0 0 1  1 0 0 0 1  0 1 1 1 0"></feConvolveMatrix><feComposite operator="in" in="f1" in2="cm1" result="c1"></feComposite><feMorphology operator="dilate" radius="3"></feMorphology><feConvolveMatrix order="5,5" divisor="1" result="cm2" kernelMatrix="0 1 1 1 0  1 0 0 0 1  1 0 0 0 1  1 0 0 0 1  0 1 1 1 0"></feConvolveMatrix><feComposite operator="in" in="f2" in2="cm2" result="c2"></feComposite><feMerge><feMergeNode in="c2"></feMergeNode><feMergeNode in="c1"></feMergeNode><feMergeNode in="SourceGraphic"></feMergeNode></feMerge></filter></defs><g filter="url(#editing-lego)"><g transform="translate(-229.09996390342712, 140.43000030517578)"><path d="M2.34 0L49.22 0L50.49-7.81L32.62-11.13L38.77-94.43L72.27-3.03L84.77-4.88L121.97-98.05L127.44-11.82L111.23-7.23L110.16 0L162.50 0L163.48-7.81L145.70-11.13L140.63-110.35L157.03-114.06L158.01-121.48L119.43-121.48L112.50-105.76L82.52-30.57L56.93-102.54L49.32-121.48L9.96-121.48L8.98-114.06L26.86-109.96L19.73-11.82L3.42-7.23L2.34 0ZM189.36-104.49L189.36-104.49Q192.48-104.49 195.26-106.10L195.26-106.10L195.26-106.10Q198.05-107.71 199.66-110.45L199.66-110.45L199.66-110.45Q201.27-113.18 201.27-116.41L201.27-116.41L201.27-116.41Q201.27-121.09 197.75-124.32L197.75-124.32L197.75-124.32Q194.24-127.54 189.36-127.54L189.36-127.54L189.36-127.54Q184.67-127.54 181.20-124.37L181.20-124.37L181.20-124.37Q177.73-121.19 177.73-116.60L177.73-116.60L177.73-116.60Q177.73-113.38 179.30-110.60L179.30-110.60L179.30-110.60Q180.86-107.81 183.54-106.15L183.54-106.15L183.54-106.15Q186.23-104.49 189.36-104.49L189.36-104.49ZM166.11 0L212.99 0L214.06-7.81L198.44-11.33L198.44-83.98L196.00-86.43L168.55-84.18L167.29-76.76L182.03-71.39L182.03-11.33L167.29-7.71L166.11 0ZM264.06 0L265.43-7.71L250.88-11.13L250.88-65.92L250.88-65.92Q254.49-69.92 259.57-72.12L259.57-72.12L259.57-72.12Q264.65-74.32 270.12-74.32L270.12-74.32L270.12-74.32Q277.83-74.32 282.47-69.87L282.47-69.87L282.47-69.87Q287.11-65.43 287.11-56.35L287.11-56.35L287.11-11.13L273.63-7.13L272.66 0L316.50 0L317.48-7.71L303.42-11.13L303.42-60.16L303.42-60.16Q303.42-73.34 297.36-80.57L297.36-80.57L297.36-80.57Q291.31-87.79 279.88-87.79L279.88-87.79L279.88-87.79Q271.29-87.79 263.67-83.40L263.67-83.40L263.67-83.40Q256.05-79.00 250.49-72.36L250.49-72.36L249.51-72.36L251.17-84.86L249.51-86.72L220.41-82.91L219.43-75.49L234.47-70.41L234.47-11.13L219.73-7.13L218.75 0L264.06 0ZM363.87 2.64L363.87 2.64Q375.20 2.64 384.57-3.13L384.57-3.13L384.57-3.13Q393.95-8.89 399.37-19.34L399.37-19.34L399.37-19.34Q404.79-29.79 404.79-43.07L404.79-43.07L404.79-43.07Q404.79-56.45 400.15-66.65L400.15-66.65L400.15-66.65Q395.51-76.86 386.77-82.52L386.77-82.52L386.77-82.52Q378.03-88.18 366.21-88.18L366.21-88.18L366.21-88.18Q355.08-88.18 345.36-82.62L345.36-82.62L345.36-82.62Q335.64-77.05 329.69-66.46L329.69-66.46L329.69-66.46Q323.73-55.86 323.73-41.60L323.73-41.60L323.73-41.60Q323.73-28.91 328.47-18.90L328.47-18.90L328.47-18.90Q333.20-8.89 342.24-3.13L342.24-3.13L342.24-3.13Q351.27 2.64 363.87 2.64L363.87 2.64ZM362.11-77.93L362.11-77.93Q370.80-77.93 376.51-71.53L376.51-71.53L376.51-71.53Q382.23-65.14 384.81-55.37L384.81-55.37L384.81-55.37Q387.40-45.61 387.40-35.06L387.40-35.06L387.40-35.06Q387.40-27.83 385.16-21.39L385.16-21.39L385.16-21.39Q382.91-14.94 378.32-10.89L378.32-10.89L378.32-10.89Q373.73-6.84 367.19-6.84L367.19-6.84L367.19-6.84Q358.11-6.84 352.25-12.79L352.25-12.79L352.25-12.79Q346.39-18.75 343.75-28.22L343.75-28.22L343.75-28.22Q341.11-37.70 341.11-48.54L341.11-48.54L341.11-48.54Q341.11-56.54 343.36-63.23L343.36-63.23L343.36-63.23Q345.61-69.92 350.34-73.93L350.34-73.93L350.34-73.93Q355.08-77.93 362.11-77.93L362.11-77.93ZM467.68 0L468.65-8.50L445.90-11.82L445.90-49.22L445.90-49.22Q446.88-56.15 449.76-60.94L449.76-60.94L449.76-60.94Q452.64-65.72 456.15-68.12L456.15-68.12L456.15-68.12Q459.67-70.51 462.60-70.51L462.60-70.51L462.60-70.51Q465.43-70.51 468.55-69.48L468.55-69.48L468.55-69.48Q471.68-68.46 474.51-66.70L474.51-66.70L474.51-66.70Q480.08-71.39 480.08-77.54L480.08-77.54L480.08-77.54Q480.08-81.93 477.05-85.21L477.05-85.21L477.05-85.21Q474.02-88.48 469.24-88.48L469.24-88.48L469.24-88.48Q464.84-88.48 460.35-85.50L460.35-85.50L460.35-85.50Q455.86-82.52 451.86-76.56L451.86-76.56L451.86-76.56Q447.85-70.61 445.31-62.11L445.31-62.11L443.46-62.11L445.41-84.57L443.16-86.91L415.14-83.30L413.77-75.88L429.69-71.09L429.69-11.13L414.75-7.23L413.77 0L467.68 0ZM574.22 0L575.59-8.11L552.44-11.91L552.44-113.87L552.44-113.87Q553.42-113.96 556.69-114.21L556.69-114.21L556.69-114.21Q559.96-114.45 562.40-114.45L562.40-114.45L562.40-114.45Q578.13-114.45 585.69-105.81L585.69-105.81L585.69-105.81Q593.26-97.17 593.26-83.59L593.26-83.59L593.26-83.59Q593.26-70.51 585.55-63.82L585.55-63.82L585.55-63.82Q577.83-57.13 562.11-56.74L562.11-56.74L556.93-56.64L558.69-48.54L561.52-48.44L561.52-48.44Q565.82-48.24 568.46-48.24L568.46-48.24L568.46-48.24Q580.37-48.24 590.72-53.17L590.72-53.17L590.72-53.17Q601.07-58.11 607.28-66.99L607.28-66.99L607.28-66.99Q613.48-75.88 613.48-87.11L613.48-87.11L613.48-87.11Q613.48-106.84 600-114.70L600-114.70L600-114.70Q586.52-122.56 564.45-122.56L564.45-122.56L564.45-122.56Q553.42-122.56 542.29-121.39L542.29-121.39L542.29-121.39Q531.15-120.21 517.97-118.26L517.97-118.26L516.99-110.74L533.69-107.81L533.69-11.82L517.38-7.23L516.31 0L574.22 0ZM667.77 0L668.75-8.50L646.00-11.82L646.00-49.22L646.00-49.22Q646.97-56.15 649.85-60.94L649.85-60.94L649.85-60.94Q652.73-65.72 656.25-68.12L656.25-68.12L656.25-68.12Q659.77-70.51 662.70-70.51L662.70-70.51L662.70-70.51Q665.53-70.51 668.65-69.48L668.65-69.48L668.65-69.48Q671.78-68.46 674.61-66.70L674.61-66.70L674.61-66.70Q680.18-71.39 680.18-77.54L680.18-77.54L680.18-77.54Q680.18-81.93 677.15-85.21L677.15-85.21L677.15-85.21Q674.12-88.48 669.34-88.48L669.34-88.48L669.34-88.48Q664.94-88.48 660.45-85.50L660.45-85.50L660.45-85.50Q655.96-82.52 651.95-76.56L651.95-76.56L651.95-76.56Q647.95-70.61 645.41-62.11L645.41-62.11L643.55-62.11L645.51-84.57L643.26-86.91L615.23-83.30L613.87-75.88L629.79-71.09L629.79-11.13L614.84-7.23L613.87 0L667.77 0ZM708.59-104.49L708.59-104.49Q711.72-104.49 714.50-106.10L714.50-106.10L714.50-106.10Q717.29-107.71 718.90-110.45L718.90-110.45L718.90-110.45Q720.51-113.18 720.51-116.41L720.51-116.41L720.51-116.41Q720.51-121.09 716.99-124.32L716.99-124.32L716.99-124.32Q713.48-127.54 708.59-127.54L708.59-127.54L708.59-127.54Q703.91-127.54 700.44-124.37L700.44-124.37L700.44-124.37Q696.97-121.19 696.97-116.60L696.97-116.60L696.97-116.60Q696.97-113.38 698.54-110.60L698.54-110.60L698.54-110.60Q700.10-107.81 702.78-106.15L702.78-106.15L702.78-106.15Q705.47-104.49 708.59-104.49L708.59-104.49ZM685.35 0L732.23 0L733.30-7.81L717.68-11.33L717.68-83.98L715.23-86.43L687.79-84.18L686.52-76.76L701.27-71.39L701.27-11.33L686.52-7.71L685.35 0ZM739.55-8.50L739.94 0L805.47 0L809.57-26.07L803.03-26.86L793.75-9.67L758.59-9.67L807.62-78.03L807.62-85.25L741.99-85.25L741.21-59.38L748.73-58.11L754.49-76.17L787.40-76.17L739.55-8.50ZM856.15 2.93L856.15 2.93Q865.72 2.93 874.07-0.54L874.07-0.54L874.07-0.54Q882.42-4.00 888.28-10.16L888.28-10.16L886.23-15.33L886.23-15.33Q881.45-12.79 877.83-11.62L877.83-11.62L877.83-11.62Q874.22-10.45 871.48-10.21L871.48-10.21L871.48-10.21Q868.75-9.96 864.06-9.96L864.06-9.96L864.06-9.96Q855.47-9.96 849.46-14.89L849.46-14.89L849.46-14.89Q843.46-19.82 840.33-27.54L840.33-27.54L840.33-27.54Q837.21-35.25 836.82-43.46L836.82-43.46L884.08-44.04L884.08-44.04Q884.67-46.58 885.16-50.54L885.16-50.54L885.16-50.54Q885.64-54.49 885.64-56.74L885.64-56.74L885.64-56.74Q885.64-66.70 882.18-73.68L882.18-73.68L882.18-73.68Q878.71-80.66 872.75-84.23L872.75-84.23L872.75-84.23Q866.80-87.79 859.57-87.79L859.57-87.79L859.57-87.79Q849.80-87.79 840.53-82.23L840.53-82.23L840.53-82.23Q831.25-76.66 825.34-66.21L825.34-66.21L825.34-66.21Q819.43-55.76 819.43-41.80L819.43-41.80L819.43-41.80Q819.43-27.64 824.61-17.48L824.61-17.48L824.61-17.48Q829.79-7.32 838.23-2.20L838.23-2.20L838.23-2.20Q846.68 2.93 856.15 2.93L856.15 2.93ZM854.79-78.22L854.79-78.22Q868.26-78.22 868.26-60.06L868.26-60.06L868.26-60.06Q868.26-58.59 868.12-56.49L868.12-56.49L868.12-56.49Q867.97-54.39 867.68-53.32L867.68-53.32L837.01-51.07L837.01-51.07Q837.50-60.06 840.19-66.16L840.19-66.16L840.19-66.16Q842.87-72.27 846.78-75.24L846.78-75.24L846.78-75.24Q850.68-78.22 854.79-78.22L854.79-78.22ZM925.78 3.32L925.78 3.32Q933.30 3.32 940.28 0.10L940.28 0.10L940.28 0.10Q947.27-3.13 951.56-8.84L951.56-8.84L951.56-8.84Q955.86-14.55 955.86-21.48L955.86-21.48L955.86-21.48Q955.86-28.03 952.44-33.06L952.44-33.06L952.44-33.06Q949.02-38.09 944.19-41.50L944.19-41.50L944.19-41.50Q939.36-44.92 931.54-49.22L931.54-49.22L931.54-49.22Q925.10-52.83 921.48-55.27L921.48-55.27L921.48-55.27Q917.87-57.71 915.43-60.89L915.43-60.89L915.43-60.89Q912.99-64.06 912.99-67.97L912.99-67.97L912.99-67.97Q912.99-72.85 915.97-76.27L915.97-76.27L915.97-76.27Q918.95-79.69 923.93-79.69L923.93-79.69L923.93-79.69Q929.59-79.69 933.50-74.17L933.50-74.17L933.50-74.17Q937.40-68.65 939.16-57.52L939.16-57.52L939.16-57.52Q945.51-57.91 949.17-61.43L949.17-61.43L949.17-61.43Q952.83-64.94 952.83-70.51L952.83-70.51L952.83-70.51Q952.83-75.39 949.85-79.35L949.85-79.35L949.85-79.35Q946.88-83.30 941.41-85.60L941.41-85.60L941.41-85.60Q935.94-87.89 928.91-87.89L928.91-87.89L928.91-87.89Q919.63-87.89 913.04-83.94L913.04-83.94L913.04-83.94Q906.45-79.98 903.13-74.02L903.13-74.02L903.13-74.02Q899.80-68.07 899.80-62.01L899.80-62.01L899.80-62.01Q899.80-54.98 903.37-49.61L903.37-49.61L903.37-49.61Q906.93-44.24 911.96-40.58L911.96-40.58L911.96-40.58Q916.99-36.91 925-32.32L925-32.32L925-32.32Q930.86-29.00 934.13-26.81L934.13-26.81L934.13-26.81Q937.40-24.61 939.55-21.92L939.55-21.92L939.55-21.92Q941.70-19.24 941.70-16.11L941.70-16.11L941.70-16.11Q941.70-11.04 938.09-8.64L938.09-8.64L938.09-8.64Q934.47-6.25 928.81-6.25L928.81-6.25L928.81-6.25Q922.75-6.25 917.68-11.08L917.68-11.08L917.68-11.08Q912.60-15.92 909.38-25.49L909.38-25.49L909.38-25.49Q903.91-25.10 900.68-21.19L900.68-21.19L900.68-21.19Q897.46-17.29 897.46-11.82L897.46-11.82L897.46-11.82Q897.46-7.91 900.98-4.39L900.98-4.39L900.98-4.39Q904.49-0.88 910.94 1.22L910.94 1.22L910.94 1.22Q917.38 3.32 925.78 3.32L925.78 3.32Z" fill="#fff"></path></g></g><style>text {
  font-size: 64px;
  font-family: Arial Black;
  dominant-baseline: central;
  text-anchor: middle;
}</style></svg>